<svg width="60" height="60" viewBox="0 0 60 60" fill="none" xmlns="http://www.w3.org/2000/svg">
<g id="ep:arrow-up-bold">
<path id="Vector" d="M6.13506 19.8488C6.83829 19.1457 7.79194 18.7508 8.78631 18.7508C9.78067 18.7508 10.7343 19.1457 11.4376 19.8488L30.0001 38.4113L48.5626 19.8488C49.2698 19.1657 50.2171 18.7877 51.2003 18.7962C52.1836 18.8048 53.1241 19.1992 53.8194 19.8944C54.5147 20.5897 54.909 21.5303 54.9176 22.5135C54.9261 23.4967 54.5482 24.444 53.8651 25.1513L32.6513 46.365C31.9481 47.068 30.9944 47.463 30.0001 47.463C29.0057 47.463 28.052 47.068 27.3488 46.365L6.13506 25.1513C5.43204 24.448 5.03711 23.4944 5.03711 22.5C5.03711 21.5056 5.43204 20.552 6.13506 19.8488Z" fill="white"/>
</g>
</svg>
